<svg version="1" xmlns="http://www.w3.org/2000/svg" width="386.667" height="386.667" viewBox="0 0 290.000000 290.000000"><path d="M129 12c-.8.5-2.5.7-3.7.3-1.4-.3-2.3-.1-2.3.7 0 .6.4.9.9.5 1.2-.7 3.3 2.9 2.3 4-.4.4.4.4 1.8.1 2.2-.6 2.3-.5.7.4-1 .7-2.2.9-2.5.5-.7-.6-.8-1-1.1-3.6 0-.5-.5-.8-1-.4-.5.3-1.2.1-1.6-.5-.4-.7-1.2-.7-2.6 0-1 .6-1.9.7-1.9.3 0-1-2 1.9-2 3 0 .5.5.5 1 .2.6-.3 1.3.1 1.6.9.3.9.9 1.4 1.3 1.2.4-.3.8.5.8 1.7.2 1.9 0 1.8-1.6-.7-1-1.5-2.2-2.8-2.7-2.9-.5-.1-.8-.7-.8-1.4.1-.6-.7-1.1-1.7-1-1.1.1-1.9.8-1.9 1.7 0 1.3-.2 1.3-1.1 0-.7-1.1-1.2-1.2-1.5-.3-.3.7-1.1 1-1.9.7-1.6-.6-3.5 2.5-2.7 4.5.3.8 0 1.1-.7.7-1-.7-1.3-.3-1.5 2.6-.1.7-.5 1.6-1.1 2-.5.4-1 1.1-1.1 1.5-.2 2.2-1.7 6.3-2.1 5.9-.8-.8-4.6 3.2-4 4.1.3.5.1 1.5-.5 2.3-.8 1.2-.9 1.1-.4-.4.5-1.4.2-1.7-1-1.2-.8.3-1.8.6-2 .6-.2 0-.4.8-.4 1.7 0 1.4-.2 1.5-.9.5-.6-1.1-1.3-.8-2.8 1.2-1.1 1.4-2.4 2.2-2.8 1.8-.5-.4-.5-.1-.1.5.4.7.2 1.3-.4 1.3-.6 0-.9.4-.6.8.2.4-.4.9-1.5.9-1 .1-1.9-.3-1.9-.9 0-3-10.9-8.2-12.9-6.2-.9.9 2.1 2.2 3.8 1.7 1.3-.4 1.3-.3.2.5-1 .7-2.2.7-3.7 0-1.8-.8-2.6-.7-3.8.5-.9.9-1.6 1.9-1.6 2.3 0 .4-1.6 2.2-3.5 4.1-1.9 1.9-3.5 3.7-3.5 4 0 .3-1.1 2-2.4 3.7-1.3 1.7-2.6 4.1-3 5.3-.4 1.3-1.1 2.3-1.5 2.3-.5 0-2.1 2.8-3.6 6.2-1.4 3.5-3.7 8.5-4.9 11.3-3.6 8.1-7.4 22-6.2 23.2.3.3.1 1.4-.5 2.4-.8 1.5-.6 1.9.6 1.9 1 0 1.3-.5.9-1.2-.4-.6-.3-.8.4-.4.6.3.9 1.6.7 2.7-.3 1.5 0 1.9 1.1 1.5.8-.3 1.3-.2.9.3-.3.5 0 1.1.7 1.3.7.3.5.7-.6 1.1-.9.4-1.5.3-1.2-.2.3-.5-.1-1.2-1-1.5-.8-.3-1.2-1-.9-1.6.3-.5-.1-1-.9-1-1.1 0-1.6.9-1.6 2.9 0 2.3.7 3.3 3.2 4.5 1.7.9 3.9 1.6 4.9 1.6 1 0 2.1.5 2.5 1.2.4.6.3.8-.3.5-.6-.4-1.5.5-2.1 1.8-.7 1.4-1.6 2.5-2.2 2.5-.7 0-.5.9.4 2.1.8 1.2 1.2 2.8.9 3.7-.5 1.1-.3 1.3.7.7.9-.5 1.1-.4.6.4-.9 1.3-2.7.5-2.5-1.2.3-2.8-.4-4-1-1.7-.5 1.4-.3 3.1.3 3.9.8 1.1.8 1.3-.1.7-.7-.4-1.3-.2-1.3.3 0 .6.4 1.1.9 1.1.6 0 .6 1.2 0 3-.6 1.6-1.4 2.9-1.7 2.9-2-.3-2.5.2-1.2 1.1 1.2.8 1.1 1-.6 1-1.2 0-2.7.7-3.4 1.5-1.3 1.6-.4 3.9 1.2 2.9.7-.4.8-.2.4.5-.4.6-1.2.9-1.7.6-1.9-1.2-1.2 12 .8 15.4 1.4 2.5 1.4 2.5-.2.6-1.6-1.9-1.6-1.9-.9 1 .4 1.6.7 4.5.7 6.3 0 2.3.3 3 1.1 2.3.8-.6 1.1.9 1.2 5.7.2 7.8 3.4 21.2 7.1 29.2 5.8 12.6 6.5 14 7.4 14 .4 0 .5.7.2 1.7-.4.9-.2 1.4.3 1 .5-.3 1.5.7 2.2 2.3.7 1.6 2.2 3 3.3 3.2 1.1.2 1.9.7 1.9 1.2-.1.5.4 1.3 1.2 1.8 1 .8 1 .9-.2.5-.8-.2-1.4-1-1.2-1.6.1-.6-.5-1.1-1.3-1.1-1.3 0-1.4.4-.5 2 .6 1.1 1.5 2 2.1 2 .6 0 .8.4.5.9-.3.5.1 1.1.9 1.4 1 .4 1.2.1.9-1.1-.5-1.4-.4-1.4.4-.3.6.8.8 2 .5 2.8-.3.7 0 1.3.6 1.3s1.1.7 1.1 1.6c0 1.1.5 1.4 1.6 1 1-.4 1.8 0 2.1 1.3.5 1.9 6 4.1 10.2 4.1 1.2 0 1.9.4 1.6 1-.5.9 3.2 1.6 5.9 1.1.4-.1 1.5.4 2.3 1.1 1.4 1.1 1.5 1 .9-.9-.4-1.3-.2-2.4.5-2.9.8-.4.9-.3.5.4-.4.6-.1 2.2.6 3.4.7 1.3 1.1 2.7 1 3.2-.2.5.4.6 1.3.3.8-.4 1.5-.2 1.5.4 0 .6-.8.9-1.7.7-1-.2-1.7-1-1.5-1.6.1-.7-.3-1.2-.9-1.2-.5 0-.9.8-.8 1.7.1 1 0 2-.1 2.3-.1.3-.4 1.7-.6 3.2-.3 2 0 2.8 1.5 3.3 1 .3 2.2 1.2 2.5 2 .6 1.7 2.6 2 2.6.4 0-.5-.5-.7-1.2-.3-.7.4-.8.3-.4-.4 1.1-1.8 2.6-1.4 2.6.7 0 1.6 1.5 2.6 4.4 2.9.5 0 1.3.6 1.8 1.4.7 1 .8.9.4-.5-.3-.9-.1-1.7.4-1.7.6 0 1 .7 1 1.5 0 .9.6 1.2 1.7.8 1.1-.4 1.4-.3.9.5-.4.7-.3 1.2.3 1.2.5 0 1.7.3 2.6.6 1 .4 1.5.2 1.3-.7-.2-.7.6-1.4 1.7-1.6 1.5-.2 1.6-.1.5.5-.8.4-1.5 1.4-1.6 2.2-.2 2.2 3.6 2.3 6 .2 1.8-1.6 1.8-1.6.7.5-1.4 2.7.3 3.2 1.9.5 1-1.5 1-1.4.5.5-.5 1.8-.2 2.1 2.4 1.9 1.7-.1 3.2.3 3.5.8.2.7.8.7 1.7-.2.7-.6 1.8-1.2 2.4-1.2.5 0 .3.5-.5 1.1-1.2.9-1.1 1 .8.6 1.2-.3 2.2 0 2.2.6s.6.2 1.4-.9c.8-1 1.8-1.6 2.2-1.1.4.4.2.7-.5.7s-1 .4-.7.9c.3.5 2 .7 3.8.5 1.8-.2 5-.4 7.1-.5 2.5-.2 3.4-.5 2.5-1.1-.9-.6-.7-.8.7-.7 3.7.3 4.5-.1 7.5-3.3 2-2 2.8-3.7 2.4-4.7-.4-.9-.6-2.4-.6-3.4s-.4-1.5-1-1.1c-.7.4-.8.2-.4-.5.9-1.3 2.7-.5 2.5 1.2-.3 2.3.1 3.8.9 3.3.4-.2.9-1.9 1-3.6.2-1.9-.1-2.9-.8-2.5-1.6 1-1.2-.1.7-1.6 1.4-1.2 1.6-1.2.8 0-.5 1-.4 1.2.4.7.6-.4.9-1.1.7-1.5-.8-1.2 2.4-5.2 3.5-4.6.5.4.9 1.2.9 1.8 0 .8-.3.8-.9-.2-.5-.8-1.1-.9-1.5-.3-1 1.6 1.2 2.5 6 2.5 4.6 0 7.8-1.8 6.7-3.7-.5-.8-.3-.8.8 0 .8.6 2.2 1 3.1.9 1-.2 1.5.2 1.2 1-.7 1.7 7.8 5.7 8.8 4.1.5-.7.8-.6.8.4 0 1.2.2 1.3.9.1.7-1.1.9-1.1 1.4 0 .4 1.1.6 1.1.6.1.1-.7.6-1 1.2-.7 1.1.7 6.9-1.3 6.9-2.4 0-1.2-1.7-3.3-2.6-3.1-.5 0-1-.6-1.2-1.4-.2-.9.1-1.6.7-1.6s.8.7.4 1.5c-.3.9-.1 1.5.5 1.3.6-.2 1.8.6 2.6 1.7 1.4 1.8 1.5 1.9 1.6.2 0-1 .4-1.6.9-1.2.5.3 1.2-.4 1.6-1.5.4-1.1 1-1.8 1.5-1.5.4.3 1-.2 1.4-1 .3-.8 1.2-1.5 2.1-1.5.8 0 1.5-.6 1.5-1.3 0-.9.3-.8.9.2.7 1.1.9 1.1 1.4 0 .4-1 .6-1 .6.2.1 1 1 1.6 2.4 1.6 1.2 0 3 .3 4.1.8 1.2.5 2.1.3 2.7-.6.7-1.1.9-1 1 .6 0 1.1.3 1.4.6.7.2-.6 1.3-1.2 2.4-1.2 1 0 1.9-.6 1.9-1.3 0-.7 1.4-2.6 3-4.2 1.7-1.6 2.8-3.5 2.6-4.2-.3-.7-.1-1.3.4-1.3.6 0 1 .5 1 1.1 0 .5.5.7 1.2.3.8-.5.6-1.1-.6-1.9-1.5-1.2-1.4-1.4 1.4-2.6 1.6-.8 3-2 3-2.6 0-.7.5-1.3 1.1-1.3.5 0 .8-.4.4-.9-.3-.6.3-1.4 1.2-2 1-.6 1.4-1.1.9-1.1-.4 0 .1-.8 1.1-1.7 1.1-1 3.1-5.2 4.4-9.3 1.3-4.1 2.8-7.8 3.2-8.1 1.5-1.1 1.5-7.3 0-9.1-1.1-1.2-1.1-1.8-.2-2.4.7-.4 1-.3.5.4-.3.6-.2 1.3.3 1.6.5.3 1.1-.8 1.3-2.5.3-2.2.1-2.8-.8-2.5-.8.3-1.6.1-1.9-.5-.4-.5-.1-.8.5-.7.7.2 1.6-.7 2.1-2 .7-1.7.6-2.1-.4-1.6-.9.6-.9.4.1-.8 1-1.3 1-1.7-.2-2.1-1-.4-1.6.2-1.9 1.6-.4 2.2-.4 2.2-.6-.1-.1-1.5-.5-2.1-1.3-1.6-.6.4-.8.3-.4-.4.3-.6 1.6-.9 2.7-.7 1.5.3 1.9 0 1.7-1.3-.6-2.9-7.6-3.7-33.6-3.7-28.5 0-28.7.1-29 7.7-.2 5.1-3.1 15.8-4.3 15.8-.5 0-.9.7-.9 1.5s-1 2-2.2 2.6c-1.3.7-3.6 2.6-5.3 4.3-1.6 1.7-3.2 3.1-3.5 3.2-.3 0-2.3.9-4.5 1.9-2.2 1-4.2 1.9-4.5 2-5.6 1.3-6.9 1.9-7.4 3.2-.3.8-.4 1.9-.1 2.3.3.5 0 1.2-.6 1.6-.8.4-.9.3-.5-.4s.2-1.2-.5-1.2c-1 0-1-.3-.1-1.2.7-.7 1.2-1.7 1.2-2.2 0-.6-.5-.4-1 .4-.5.9-2.1 1.4-3.8 1.2-2.1-.2-2.9.1-2.9 1.2 0 .9.6 1.6 1.4 1.6.7 0 1.3.5 1.3 1 0 .7-.7.7-2 0-1.1-.6-1.8-1.5-1.5-2 .8-1.3-.6-1.9-5.3-2.1-2.3-.2-4.2-.7-4.2-1.2s-.8-.3-1.7.4c-.9.8-1.4.9-1 .3.4-.7-.7-1.4-3.2-1.8-5.1-.8-13.1-4.2-15.6-6.7-1.1-1-3.5-3.1-5.2-4.5-1.8-1.4-3.3-3.2-3.3-4 0-.8-1-2.4-2.1-3.5-2.4-2.4-7.4-16.2-8.4-23-.4-2.4-1.1-4.6-1.6-4.9-1.3-.9-2.4-16.2-2.3-33 .1-16.9 1-26.8 2.7-28.8.7-.8 1.1-1.7.9-1.9-.6-.6.9-6.7 4-16.3 2.3-6.9 4.1-10.5 6.7-13.3 1.9-2 3.2-3.7 2.7-3.7-1.2 0 1.5-2.3 5.7-4.9 2-1.2 3.7-2.6 3.7-3 0-1.1 9.9-4.1 16.5-5 11.4-1.6 28.1.7 31.7 4.2.7.7 2.9 2.4 4.8 3.7 4.1 2.8 6.4 5 5.4 5-.3 0-.1.7.6 1.5.7.9 1.5 1.3 1.8 1 .3-.3 2.1 2.6 3.9 6.5 2.2 4.8 3.5 9.2 3.9 14 .4 3.9 1.1 7 1.5 7 .5 0 .8.3.7.7-.1.5.3 1.8 1 3 1.1 2 2.1 2.3 7.2 2.3 4.1 0 6-.4 6-1.3 0-.8.3-.8.9.2.7 1.1 1 1 1.4-.5.4-1.5.5-1.5.6-.3.1 1.5 2.4 1.7 19.9 1.8 10.9.1 20.6-.1 21.5-.5.9-.3 2.1-2 2.7-3.8 1.5-4.8 0-27.7-2-29.6-.4-.3-1.2-2.5-1.9-5s-2.4-7.5-3.8-11.2c-2-5.2-2.8-6.4-3.8-5.5-.7.7-1.1 1.5-.9 1.9.2.4 0 .9-.5 1.2-1.1.7-.9-1.3.2-3.1.4-.7.2-2.3-.5-3.5-.7-1.3-1.2-2.6-1.3-3-.1-2.1-19.1-21.8-21.1-21.8-.6 0-2-1.1-3.2-2.5-1.2-1.3-4.8-3.8-8-5.4-4.6-2.3-6.2-2.7-7.2-1.8-.9.8-1.1.8-.7.1.4-.7-.4-1.9-1.8-2.8-2.8-1.8-3.9-2.1-3-.6.3.5.1 1-.4 1-.6 0-1.1-.7-1.1-1.5 0-1.4-6-3.2-8.9-2.6-.8.1-1-.2-.5-1.1.5-.9.2-.8-1.1.2-1.1.9-1.6 1-1.1.2.4-.6.2-1.2-.3-1.2-.6 0-1.1.5-1.1 1.2 0 .6-.6.4-1.3-.6-1.5-2-6.4-1.9-5.9.2.1.6-.2 1.2-.8 1.2-1.2 0-1.3-.6-.1-2.9.8-1.4.5-1.7-1.7-1.9-1.5-.1-3.2.2-3.9.6-1.8 1.2-2.2 7.5-.5 8.8 1.2.9 1.3 1.3.2 1.9-.9.5-1.1.4-.6-.3.4-.7.2-1.2-.3-1.2-1.2 0-1.4 3.2-.5 7.9.7 3.4 2 4.1 2.8 1.3.4-1.3.4-1.3.3.3-.1 1.1.2 2.5.6 3.2.5.7 0 1-1.5.6-1.9-.4-2-.3-.8.6.9.7 1 1.1.3 1.1-.6 0-1.5-.5-1.9-1.1-.4-.8-.9-.7-1.5.2-.6 1-.2 1.6 1.4 2.1 2.1.7 2 .7-.3.5-1.7-.1-2.4-.7-2.2-1.8.2-1.2-.4-1.6-2.3-1.4-1.6.2-2.5-.2-2.5-1.1 0-.8-.4-1.4-.8-1.4s-.9-1-.9-2.2c-.1-1.3-.7-2.4-1.3-2.6-.5-.2-.8-.7-.5-1.2.3-.4-.2-1.3-1-2s-1.5-1.9-1.5-2.6c0-.8-.5-1.4-1.2-1.4-.6 0-.9-.3-.5-.6.3-.3-.8-1.9-2.4-3.6-1.6-1.7-2.6-3.4-2.4-3.8.3-.4-.2-1.1-1.1-1.4-2.8-1.1-5.1-.6-5.1.9 0 .8.9 1.5 1.9 1.5 1.2 0 1.6-.4 1.2-1.2-.5-.7-.3-.8.5-.3 1.8 1-.2 2.8-2.5 2.3-1.1-.2-1.9-1-1.9-1.8 0-2.1-5.5-2.2-5.6-.1 0 1.4-.1 1.4-.7-.1-.5-1.2-1.1-1.5-2.2-.8zm9 3.9c1.2.8 1 1-.7.8-1.2 0-2-.3-1.8-.6.3-.2-.3-1-1.3-1.8-1.6-1.3-1.5-1.3.3-.4 1.1.6 2.7 1.5 3.5 2zm33-2.5c0 .3-.4.8-1 1.1-.5.3-1 .1-1-.4 0-.6.5-1.1 1-1.1.6 0 1 .2 1 .4zm-1.5 4.6c.6-.1 1.1.6 1.3 1.4.2.9-.1 1.6-.7 1.6s-.8-.7-.4-1.5c.3-1 0-1.5-.8-1.3-.8.2-1.4-.7-1.6-2.2-.2-2.4-.2-2.4.5-.2.4 1.3 1.2 2.3 1.7 2.2zM122 16.6c0 .9.5 1.2 1.2.8.7-.5.8-.3.3.6-.6 1-1.1 1-2-.3-.7-.9-1.6-1.3-2-.9-.5.4-.5.1-.1-.6 1-1.7 2.6-1.5 2.6.4zm54.7-1c-.3.3-1.2.4-1.9.1-.8-.3-.5-.6.6-.6 1.1-.1 1.7.2 1.3.5zM134 18.5c-.1.5.9 1.3 2.2 1.7l2.3.6-2.3.1c-1.5.1-2.1.5-1.6 1.3.4.6.3.8-.4.5-.5-.4-.9-1.5-.8-2.5.2-.9-.4-2-1.3-2.4-1.4-.7-1.3-.7.2-.5 1 .1 1.8.6 1.7 1.2zm11-.5c0 .5-.7.6-1.7.3-1.2-.5-1.4-.3-.8.7.5.9.4 1.1-.4.6-.6-.4-.9-1.2-.6-1.7.8-1.2 3.5-1.2 3.5.1zm29.5 1.7c-.1 2.2-.7 2.8-2.6 3-2.3.1-2.3.1-.1-.4 1.2-.2 2-.9 1.6-1.4-.5-.9.1-3.9.9-3.9.1 0 .2 1.2.2 2.7zm4-1.8c.3.5 0 1.3-.6 1.7-.7.4-.9.3-.5-.4.3-.5 0-1.3-.6-1.5-.9-.4-1-.6-.1-.6.6-.1 1.4.3 1.8.8zm-38.2 1.4c.3.8.2 2-.3 2.6-.5.9-.7.4-.7-1.3 0-2.9.2-3.2 1-1.3zm6.3.9c-.2 1.6-1 2.3-2.5 2.2-1.4 0-2 .4-1.7 1.3.3.7.1 1.3-.5 1.3s-.9-.8-.7-1.8c.2-1.1 1.1-1.6 2.6-1.4 1.2.2 2.2 0 2.1-.5-.2-1.4.1-3.3.6-3.3.3 0 .3 1 .1 2.2zm34.2.4c0 1.7-.3 2.2-.8 1.3-.5-.6-.6-1.8-.3-2.6.8-1.9 1.1-1.6 1.1 1.3zm8.2-1.5c0 .5.5.7 1.2.3.7-.4.8-.3.4.5-.6.9-1.1.9-2.2 0-1.7-1.4-1.8-1.9-.4-1.9.6 0 1 .5 1 1.1zm-78 .9c0 .5-.4 1-1 1-.5 0-1-.5-1-1 0-.6.5-1 1-1 .6 0 1 .4 1 1zm16 .5c0 .1-1.2.2-2.6.2-1.7 0-2.2-.2-1.3-.7 1-.7 3.9-.3 3.9.5zm3.8.2c-.2 1-1 1.7-1.6 1.5-1.4-.2-1.4 0-.6 2.2.3.9 1.1 1.3 1.7.9.6-.4.7-.1.2.7-.6 1-1.1.9-2.2-.6-1.5-2.1-1.2-4 .7-3.6.8.2 1-.3.7-1.3-.4-.8-.2-1.5.4-1.5.6 0 .9.8.7 1.7zm54.5 0c-.7.2-1.9.2-2.5 0-.7-.3-.2-.5 1.2-.5s1.9.2 1.3.5zM117 22c0 .5-.6.7-1.4.4-1.1-.4-1.3 0-.9 1.4.5 2.2-1.2 3.8-2.3 2.1-.5-.8-.3-.9.5-.4.9.5 1.2.1 1.1-1.1-.1-1.1-.2-2.2-.1-2.7.2-1.1 3.1-.9 3.1.3zm59.1 1.3c-1 .9-1.1.8-.5-.6.3-1 .9-1.5 1.2-1.2.3.3 0 1.1-.7 1.8zm17-.1c1.1 2.1 1.1 2.2-.4.9-1-.7-1.7-1.7-1.7-2.2 0-1.5.9-1 2.1 1.3zm-84.5 1.5c-.4.4-1.2.1-1.9-.7-.9-1-.9-1.1.1-.6.7.4 1.2.2 1.3-.6 0-1.1.2-1.1.6 0 .3.7.2 1.6-.1 1.9zm10.4.1c-.6.2-.7.9-.4 1.4.4.6.2.8-.4.5-.5-.4-.8-1.6-.5-2.8.4-1.6.8-1.7 1.4-.7.5.7.4 1.4-.1 1.6zm5.6-.1c-.4.4-1.2.1-1.9-.7-.9-1-.9-1.1.1-.6.7.4 1.2.2 1.3-.6 0-1.1.2-1.1.6 0 .3.7.2 1.6-.1 1.9zM149 23c-.8.5-1 1-.5 1 .6 0 .3.6-.6 1.3-.9.7-1.6 1.6-1.7 2.2 0 .5-.6 1.1-1.4 1.3-.9.2-.8 0 .2-.7.8-.6 1.1-1.1.5-1.1-.5 0-.1-.7.9-1.5 1.1-.8 1.6-1.5 1.2-1.5-.4 0-.4-.5-.1-1 .3-.6 1.2-1 1.8-1 .7 0 .6.4-.3 1zm29.6 1.2c-.2 1.7-.9 2.2-2.5 2.1-1.2-.2-2 .1-1.7.5.2.4 0 1.4-.5 2.2-.7 1.1-.8.8-.5-1 .3-1.9.9-2.4 2.5-2.3 1.1.2 2-.1 2-.5-.2-1.4.1-3.2.6-3.2.3 0 .3 1 .1 2.2zm11.7-.8c.6 1.5-1.7 1.6-3 .1-.4-.4-.2-.5.5-.1.6.4 1.2.2 1.2-.3 0-1.5.7-1.4 1.3.3zm6-.1c.3.8.2 2-.3 2.6-.5.9-.7.4-.7-1.3 0-2.9.2-3.2 1-1.3zm-62.8.7c.3.5.2 1-.4 1-.5 0-1.3-.5-1.6-1-.3-.6-.2-1 .4-1 .5 0 1.3.4 1.6 1zm4.5.6c0 .8.5 1.2 1 .9.6-.3 1-.4 1-.1 0 1.6-2.1 1.3-3-.4-.7-1.3-.7-2 0-2 .5 0 1 .7 1 1.6zm46.6-.4c.4.7.4 1-.1.6-.4-.4-1.3 0-2 .9-.9 1.3-1.4 1.3-2 .3-.5-.9-.4-1.1.3-.6.7.4 1.2.1 1.2-.8 0-1.9 1.6-2.1 2.6-.4zm-15.6.2c0 .3-.4.8-1 1.1-.5.3-1 .1-1-.4 0-.6.5-1.1 1-1.1.6 0 1 .2 1 .4zm2.7 1c-1 .8-1.8 1.8-1.7 2.2.1.5-.4 1-1.2 1.2-.9.2-.8 0 .2-.7.8-.6 1.1-1.1.5-1.1-.5 0-.1-.7.9-1.5 1.1-.8 2.2-1.5 2.5-1.5.3 0-.2.7-1.2 1.4zM107 27.6c0 .8-.4 1.4-1 1.4-.5 0-.6-.7-.3-1.7.5-1.2.3-1.4-.7-.8-.9.5-1.1.4-.6-.4.9-1.4 2.6-.5 2.6 1.5zm3.6-1.7c-.3.5.1 1.1.9 1.5.8.3 1.5 1.1 1.4 1.8 0 1-.2 1-.6 0-.6-1.5-2.4-1.6-2 0 .1.6-.7 1.3-1.8 1.5-1.5.2-1.6.1-.5-.5.9-.4 1.5-1.4 1.5-2.2-.1-1.7.4-3 1.1-3 .3 0 .3.4 0 .9zm12.4 1.7c0 .8-.4 1.4-1 1.4-.5 0-.6-.7-.3-1.7.5-1.2.3-1.4-.7-.8-.9.5-1.1.4-.6-.4.9-1.4 2.6-.5 2.6 1.5zm3.5-1.6c-.3.5 0 1 .7 1 1 0 1 .2 0 .9-.8.4-1.3 1.2-1.1 1.7.1.5-.6 1-1.7 1.1-1.4.2-1.5.1-.4-.5.9-.4 1.5-1.4 1.5-2.2-.1-1.7.4-3 1.1-3 .3 0 .2.4-.1 1zm9.9.6c.3.8.2 1.2-.4.9-.6-.3-1-1-1-1.6 0-1.4.7-1.1 1.4.7zm53.6.1c0 .3-.9.3-2 0s-2 0-2 .6-.3.8-.6.4c-1.2-1.1.6-2.5 2.6-2 1.1.3 2 .8 2 1zm-73 1.8c0 .8-.4 1.5-.8 1.5-.5 0-.9-.7-.9-1.5s.4-1.5.9-1.5c.4 0 .8.7.8 1.5zm17-.7c0 .5-.7.9-1.5.9s-1.5-.4-1.5-.9c0-.4.7-.8 1.5-.8s1.5.4 1.5.8zm9 .7c0 .1-1.2.2-2.6.2-1.7 0-2.2-.2-1.3-.7 1-.7 3.9-.3 3.9.5zm7.4-.1c-.4 1.1.1 1.3 1.8 1 2.1-.4 2.1-.3.3.5-1.1.4-2.3.7-2.7.4-1.1-.6-1-3.3.2-3.3.5 0 .7.6.4 1.4zM167 28c0 .5-.4 1-1 1-.5 0-1-.5-1-1 0-.6.5-1 1-1 .6 0 1 .4 1 1zm16 1.4c0 .2-.9.2-2-.1-1.1-.3-2-.9-2-1.5 0-.5.9-.4 2 .2 1.1.6 2 1.2 2 1.4zm-77.5 1.5c-.6.5-2.5-1-2.5-2 0-.5.6-.4 1.4.3.8.7 1.2 1.5 1.1 1.7zm16 0c-.6.5-2.5-1-2.5-2 0-.5.6-.4 1.4.3.8.7 1.2 1.5 1.1 1.7zm9-1c.3.5 0 1.3-.6 1.7-.7.4-.9.3-.5-.4.3-.5 0-1.3-.6-1.5-.9-.4-1-.6-.1-.6.6-.1 1.4.3 1.8.8zm6.2 1.8c.1 2.4.1 2.5-.7.8-1.1-2.6-1.2-3.5-.2-3.5.4 0 .8 1.2.9 2.7zm36.7 0c1.1 1.3 1.6 2.3 1.3 2.3-1 0-3.7-3.1-3.7-4.2 0-.6.1-.9.3-.7.1.2 1.1 1.4 2.1 2.6zm5-1.8c.3.5-.2 1.5-1.2 2.2-1.6 1.3-1.6 1.3-.2-.5 1.4-1.8 1.3-1.9-.2-1.3-1 .3-1.8.2-1.8-.3 0-1.2 2.7-1.3 3.4-.1zm-38.3 2.8c-1.2 2-1.4 1.4-.5-1.2.4-.9.9-1.4 1.1-1.1.3.2 0 1.3-.6 2.3zm4.8 1.5c.1.5-.3.8-.7.8-.4 0-.8-1.2-.9-2.8-.1-2.3-.1-2.4.7-.7.5 1.1.9 2.3.9 2.7zM103 31.4c0 .3-.4.8-1 1.1-.5.3-1 .1-1-.4 0-.6.5-1.1 1-1.1.6 0 1 .2 1 .4zm17 .6c1.2.7 1 .9-.8.7-1.2 0-2.2-.5-2.2-.9 0-1.1 1.2-1 3 .2zm13.5 0c-.3.5-1.1 1-1.6 1-.6 0-.7-.5-.4-1 .3-.6 1.1-1 1.6-1 .6 0 .7.4.4 1zm15 0c-.3.5-1.1 1-1.6 1-.6 0-.7-.5-.4-1 .3-.6 1.1-1 1.6-1 .6 0 .7.4.4 1zm-24.7 1.4c-1 .7-1.4 1.7-1 2.1.4.5.1.5-.7 0-1.2-.7-1.1-1 .4-2.2 2.4-1.7 3.6-1.7 1.3.1zm26.6-.3c-.4.7.2.9 1.7.7 1.6-.2 2.5.3 2.7 1.4.2 1-.1 1.8-.7 1.8s-.7-.7-.4-1.7c.4-1.1.3-1.4-.6-.9-1.6 1-4.4-.1-3.6-1.4.3-.5.8-1 1.1-1 .3 0 .2.5-.2 1.1zm-19.6 2.2c.2 1-.1 1.7-.7 1.7s-.7-.7-.4-1.7c.4-.9.2-1.4-.3-1-.6.3-1.6.1-2.4-.4-1.1-.7-.8-.8 1-.6 1.4.2 2.6 1.1 2.8 2zm83.4.1c.7-.4.8-.2.4.5-.9 1.3-2.6.5-2.5-1.2 0-.9.2-.8.6.1.2.6 1 .9 1.5.6zm4.9.9c-1 .9-1.1.8-.5-.6.3-1 .9-1.5 1.2-1.2.3.3 0 1.1-.7 1.8zm-92.1-.9c0 .3-.4.8-1 1.1-.5.3-1 .1-1-.4 0-.6.5-1.1 1-1.1.6 0 1 .2 1 .4zm8.2.3c-.6.2-1 .9-.7 1.3.3.5-.5 1.4-1.7 2-2.2 1.1-2.2 1-.4-.4 1.1-.9 1.6-1.6 1.2-1.6-.4 0-.4-.5-.1-1 .3-.6 1.2-1 1.8-.9.9 0 .8.2-.1.6zm5.7.3c-.6.5-1.8.6-2.6.3-1.9-.8-1.6-1.1 1.3-1.1 1.7 0 2.2.3 1.3.8zm8.1.2c0 .4-.7.8-1.5.8s-1.5-.4-1.5-.8c0-.5.7-.9 1.5-.9s1.5.4 1.5.9zm-4.2 2.3c-.3.3-.9-.2-1.2-1.2-.6-1.4-.5-1.5.5-.6.7.7 1 1.5.7 1.8zm71.5-1c-.3.9-.8 1.4-1 1.1-.3-.3-.2-.9.2-1.5.9-1.6 1.5-1.3.8.4zm-86.8 1.3c-.3.3-1.1 0-1.8-.7-.9-1-.8-1.1.6-.5 1 .3 1.5.9 1.2 1.2zm13.5.4c1 2.1 1 2.1-.3.6-.8-1-1.8-1.4-2.2-1-.5.4-.5.1-.1-.6 1-1.7 1.4-1.5 2.6 1zm10.8-.8c-.2.1-1.1.8-2.1 1.5-1.5 1.2-1.7 1.2-1.1-.4.6-1.4.4-1.6-.6-1-.8.5-1.1.4-.7-.3.4-.5 1.6-.8 2.7-.5 1.2.3 1.9.6 1.8.7zM127.5 40c1 1.1 1.6 2 1.3 2-.3 0-1.3-.9-2.3-2-1-1.1-1.6-2-1.3-2 .3 0 1.3.9 2.3 2zm85.8.1c-.8.8-1.3.7-1.8-.2-.5-.8-.4-1 .3-.5.7.4 1.2.2 1.2-.5s.3-.9.7-.6c.4.4.2 1.2-.4 1.8zm-73.7.4c.4.8 1.1 1.2 1.7.8.6-.4.7-.1.2.7-.6 1-1.1 1-2-.3-.7-.9-1.5-1.4-1.8-1-.4.3-.7.1-.7-.5 0-1.7 2-1.5 2.6.3zm8.4-.7c0 .5-.7.9-1.5.9s-1.2-.4-.9-.9c.3-.4.9-.8 1.5-.8.5 0 .9.4.9.8zm39 0c0 .5-.7.9-1.5.9s-1.2-.4-.9-.9c.3-.4.9-.8 1.5-.8.5 0 .9.4.9.8zm6 1.3c0 .5-.7.9-1.6.9-.9 0-1.2.5-.8 1.2.5.7.3.8-.6.3-1-.6-1-1.1.3-2 .9-.7 1.3-1.6.9-2-.4-.5-.1-.5.6-.1.6.4 1.2 1.1 1.2 1.7zm-59.7.6c-.7.2-1.9.2-2.5 0-.7-.3-.2-.5 1.2-.5s1.9.2 1.3.5zm55.1 1.8c.3.8.1 1.5-.4 1.5-.6 0-1-.7-1-1.5s.2-1.5.4-1.5.6.7 1 1.5zm-113.6 2c-.3.3-.9-.2-1.2-1.2-.6-1.4-.5-1.5.5-.6.7.7 1 1.5.7 1.8zm14 0c-.3.3-.9-.2-1.2-1.2-.6-1.4-.5-1.5.5-.6.7.7 1 1.5.7 1.8zm3.9-1c0 .8-.4 1.5-.9 1.5-.4 0-.8-.7-.8-1.5s.4-1.5.8-1.5c.5 0 .9.7.9 1.5zM195 44c0 .5-.4 1-1 1-.5 0-1-.5-1-1 0-.6.5-1 1-1 .6 0 1 .4 1 1zM73 46c0 .5-.7.6-1.7.3-1.2-.5-1.4-.3-.8.7.5.9.4 1.1-.4.6-.6-.4-.9-1.2-.6-1.7.8-1.2 3.5-1.2 3.5.1zm120.1 1.2c1.1 2.1 1.1 2.2-.4.9-1-.7-1.7-1.7-1.7-2.2 0-1.5.9-1 2.1 1.3zm-130.4 2c-.3.7-.5.2-.5-1.2s.2-1.9.5-1.3c.2.7.2 1.9 0 2.5zm127.4-.5c0 .5 1 1.3 2.2 2 1.2.7 1.8 1.2 1.2 1.2-2 .1-3.9-1.8-4.1-4.1-.2-1.3 0-1.7.2-1.1.3.7.5 1.6.5 2zm-121.6.1c0 .7-.4 1.2-.9 1.1-.5 0-1.3.5-1.8 1.3-.8 1-.9 1-.5-.2.2-.8 1-1.4 1.6-1.3 1.4.4 1.5-1.4.1-2-.6-.3-.5-.4.2-.3.7.2 1.3.8 1.3 1.4zm9-.7c1.1 1.6.1 1.9-1.3.3-.7-.8-.8-1.4-.3-1.4s1.3.5 1.6 1.1zM87 48c0 .5-.4 1-1 1-.5 0-1-.5-1-1 0-.6.5-1 1-1 .6 0 1 .4 1 1zm4.5 0c.3.6-.1.7-.9.4-1.8-.7-2.1-1.4-.7-1.4.6 0 1.3.4 1.6 1zm104.8 1.5c-.3.9-.8 1.4-1 1.1-.3-.3-.2-.9.2-1.5.9-1.6 1.5-1.3.8.4zM90.6 51.3c.1.9-.2 1.5-.7 1.1-.5-.3-.7-1-.4-1.5 1.1-1.6-.7-1-2.2.8-1.3 1.6-1.3 1.6-.3-.5 1.3-2.6 3.2-2.5 3.6.1zm107.8.3c.3.8.2 1.2-.4.9-.6-.3-1-.1-1 .6s-.2 1-.5.7c-.5-.5.4-3.8 1-3.8.2 0 .6.7.9 1.6zM70 51.4c0 .2-.8 1-1.7 1.7-1.6 1.3-1.7 1.2-.4-.4 1.3-1.6 2.1-2.1 2.1-1.3zm3.7.2c-.3.3-1.2.4-1.9.1-.8-.3-.5-.6.6-.6 1.1-.1 1.7.2 1.3.5zm1.8 1.4c-.3.5-1.2 1-1.8 1-.7 0-.6-.4.3-1 1.9-1.2 2.3-1.2 1.5 0zm119.5.4c0 .3-.4.8-1 1.1-.5.3-1 .1-1-.4 0-.6.5-1.1 1-1.1.6 0 1 .2 1 .4zm1.7 4.2c-.3.3-1.2.4-1.9.1-.8-.3-.5-.6.6-.6 1.1-.1 1.7.2 1.3.5zm23.2.2c-.9.4-1.5 1.5-1.3 2.4.1 1-.3 2.1-.8 2.5-.7.3-.8.1-.4-.5.4-.7.1-1.2-.6-1.2-.9 0-.9-.3.2-1 .8-.5 1.1-1 .7-1-.5 0-.5-.5-.2-1 .3-.6 1.4-1 2.3-.9 1.5 0 1.5.1.1.7zm2.7.7c-.3.8 0 1.5.6 1.5s.9.3.5.6c-1 1.1-2.6-.6-2-2.1.3-.8.7-1.5 1-1.5.3 0 .3.7-.1 1.5zM227 60c0 .5-.4 1-1 1-.5 0-1-.5-1-1 0-.6.5-1 1-1 .6 0 1 .4 1 1zm6-.1c0 .6-.4 1.2-.8 1.5-.5.3-.9-.1-.9-.9s.4-1.5.9-1.5c.4 0 .8.4.8.9zm4 2.1c-.8.5-1.7.7-2.1.4-.4-.2-1 .3-1.3 1.2-.3.8-1 1.3-1.5 1-.5-.4-1.2-.1-1.4.4-.4.7-.5.6-.3-.1.1-.6.5-.9.9-.7.5.2 1.2-.4 1.7-1.2.5-.9 1.9-1.6 3.2-1.7 1.7-.2 1.9 0 .8.7zm-18 3.7c0 .1-.5.5-1.2.9-.6.4-.8.3-.5-.3.4-.6 0-1.3-.8-1.7-.8-.3-1.5-1-1.5-1.6 0-.5.9-.2 2 .7 1.1 1 2 1.8 2 2zm7.9-1c-1.2 1.5-1.2 1.6.4 1 .9-.3 1.7-.2 1.7.3 0 1.1-2.3 1.4-3.3.4-.3-.3-.1-1.4.6-2.5.6-1 1.3-1.6 1.6-1.4.2.3-.2 1.2-1 2.2zm-5.3-.2c.4.8 1 1.2 1.5.9.5-.3.9-.3.9 0 0 1.5-1.9 1.2-3.3-.5-.9-1-1.2-1.9-.7-1.9.6 0 1.3.7 1.6 1.5zm16.2-.1c-.7.8-1.5 1.2-1.7 1.1-.5-.6 1-2.5 2-2.5.5 0 .4.6-.3 1.4zM234 67c-.6 1.1-1.5 1.8-1.9 1.5-.5-.3-1.2.2-1.5 1.1-.3.8-1 1.3-1.5 1-.5-.4-1.2-.1-1.4.4-.4.7-.5.6-.3-.1.1-.6.5-1 1-.9.5.1 1.3-.5 1.8-1.4.5-.9 1.3-1.4 1.8-1.1.4.3 1-.2 1.4-1 .3-.8.8-1.5 1.1-1.5.3 0 .1.9-.5 2zm-17.5 3.1c-.5 1.5-.3 1.8 1.2 1.3 1.4-.5 1.5-.4.3.4-2 1.5-3.2.4-2.4-2 .4-1.5.3-1.8-.6-1.3-.9.5-1.1.4-.6-.4 1.1-1.7 2.8-.2 2.1 2zm4.2-1.6c0 .8-.4 1.5-.9 1.5-.4 0-.8-.7-.8-1.5s.4-1.5.8-1.5c.5 0 .9.7.9 1.5zm3.5.7c-.7.7-1.2.8-1.2.2 0-.6.3-1.4.7-1.7.3-.4.9-.5 1.2-.2.2.3-.1 1.1-.7 1.7zm12.2 1c-.3.5-1 .6-1.5.3-.5-.4-.9-.1-.9.6s-.3 1-.6.6c-.9-.9.3-2.4 2-2.4.8 0 1.3.4 1 .9zM226 72.4c0 .2-.7.7-1.6 1-.8.3-1.2.2-.9-.4.6-1 2.5-1.4 2.5-.6zm5.2 1c.7-.4.8-.2.4.5-.9 1.3-2.6.5-2.5-1.2 0-.9.2-.8.6.1.2.6 1 .9 1.5.6zm-10.8.3c-1.5.3-2 1-1.7 2.2.3 1 .1 2.1-.4 2.4-.6.4-.9-3.3-.4-5.1.1-.1 1.1-.1 2.4-.1 2.1.2 2.1.2.1.6zm7.9.6c.3.8.2 2-.3 2.6-.5.9-.7.4-.7-1.3 0-2.9.2-3.2 1-1.3zm-11.9 1.5c.3.5-.1.9-.9.9s-1.2-.4-.9-.9c.3-.4.7-.8.9-.8.2 0 .6.4.9.8zm5.9.9c-.5 1.2-.3 1.4.7.8.9-.5 1.1-.4.6.4-.4.6-1.2.9-1.7.6-1.2-.8-1.2-3.5.1-3.5.5 0 .6.7.3 1.7zm10.7-.3c0 .2-.6.9-1.4 1.5-1.1.9-1.6.9-2.2 0-.4-.8-.3-.9.4-.5s1.2.2 1.2-.3c0-.6.5-1.1 1-1.1.6 0 1 .2 1 .4zm-16.1 5.8c.1.5-.3.8-.7.8-.4 0-.8-1.2-.9-2.8-.1-2.3-.1-2.4.7-.7.5 1.1.9 2.3.9 2.7zm3.6-2.2c-.3.5-1.1 1-1.6 1-.6 0-.7-.5-.4-1 .3-.6 1.1-1 1.6-1 .6 0 .7.4.4 1zm3.7 1.2c-.7.7-1.2.8-1.2.2 0-.6.3-1.4.7-1.7.3-.4.9-.5 1.2-.2.2.3-.1 1.1-.7 1.7zm4.2.5c-1.5.3-2 1-1.7 2.2.3 1 .1 2.1-.4 2.4-.6.4-.9-3.3-.4-5.1.1-.1 1.1-.1 2.4-.1 2.1.2 2.1.2.1.6zM221 84c0 .5-.7.7-1.5.4-.8-.4-1.5-.8-1.5-1 0-.2.7-.4 1.5-.4s1.5.4 1.5 1zm-4.2 2.5c-.3.3-.9-.2-1.2-1.2-.6-1.4-.5-1.5.5-.6.7.7 1 1.5.7 1.8zm7-1.1c-1 .7-1.4 1.7-1 2.1.4.5.1.5-.7 0-1.2-.7-1.1-1 .4-2.2 2.4-1.7 3.6-1.7 1.3.1zM215 87c.6 1.1.7 2 .2 2-.6 0-1.2-.9-1.5-2-.3-1.1-.3-2-.1-2 .2 0 .8.9 1.4 2zm5.4.8c.2.4 0 1.4-.6 2.2-.8 1.2-.9 1.2-.5-.2.3-.9.1-1.9-.6-2.2-.9-.3-.9-.5 0-.5.6-.1 1.4.3 1.7.7zm3.8 2.4c-.7.7-1.2.8-1.2.2 0-.6.3-1.4.7-1.7.3-.4.9-.5 1.2-.2.2.3-.1 1.1-.7 1.7zm-1.8 2.9c-.2.4.4 1 1.3 1.3 1.5.4 1.5.5-.1.3-1.2-.1-2-1.1-2.3-2.7-.2-1.8-.1-2.1.6-1 .5.8.8 1.7.5 2.1zm-4-.6c-.1.5.6 1.5 1.5 2.2 1.5 1.1 1.4 1.3-.1 3-1 .9-1.8 1.2-1.8.6s.6-1.3 1.3-1.6c.8-.3.6-1-.8-2.1-1.1-.8-1.5-1.6-1-1.7.6 0-.1-.5-1.5-1l-2.5-.8 2.5.2c1.4.1 2.5.6 2.4 1.2zm8.6-1.1c0 .3-.4.8-1 1.1-.5.3-1 .1-1-.4 0-.6.5-1.1 1-1.1.6 0 1 .2 1 .4zm-2.5 6.6c.4.6-.1.7-1.1.3-1.3-.5-1.5-.3-.9.7.5.9.4 1.1-.4.6-.6-.4-.9-1.2-.6-1.7.8-1.2 2.2-1.2 3 .1zm-12.1 16.6c.3.8.2 1.2-.4.9-.6-.3-1-1-1-1.6 0-1.4.7-1.1 1.4.7zm4.1-.6c-.3.5-.1 1 .6 1s1 .2.7.5c-.3.3-1.3.2-2.2-.1-1.4-.5-1.5-.9-.4-1.5 1.7-1.1 2-1.1 1.3.1zm-174.8 3.2c-.3.8-.6.5-.6-.6-.1-1.1.2-1.7.5-1.3.3.3.4 1.2.1 1.9zm-3.2 1.9c-.4.5-1.2.9-1.8.8-.9 0-.8-.2.1-.6.6-.2.9-1 .6-1.5-.4-.7-.2-.8.5-.4.6.4.9 1.2.6 1.7zm6.2 5.1c.2 1.7 0 1.9-.7.8-.5-.8-.6-1.8-.4-2.2.8-1.2 1-1 1.1 1.4zm4.6.5c-.3.7-.9 1.3-1.3 1.3s-1-.6-1.3-1.3c-.3-.7.3-1.3 1.3-1.3s1.6.6 1.3 1.3zm3-.2c-.3.9-.8 1.4-1 1.1-.3-.3-.2-.9.2-1.5.9-1.6 1.5-1.3.8.4zm4.7 3.1c0 .2-.9 0-2-.6s-2-1.3-2-1.6c0-.2.9 0 2 .6s2 1.3 2 1.6zm-14 .4c0 .5-.4 1-1 1-.5 0-1-.5-1-1 0-.6.5-1 1-1 .6 0 1 .4 1 1zm4-.2c0 .5-.7.9-1.5.9s-1.2-.4-.9-.9c.3-.4.9-.8 1.5-.8.5 0 .9.4.9.8zm4-.4c0 .2-.7.7-1.6 1-.8.3-1.2.2-.9-.4.6-1 2.5-1.4 2.5-.6zm1 1.9c-.9.7-1.4 2.1-1.3 3.2l.3 2-.9-2c-.6-1.4-.4-2.5.8-3.6.9-.9 1.8-1.4 2.1-1.2.3.3-.2 1-1 1.6zm-7.6 2.2c.3.8.1 1.5-.4 1.5-.6 0-1-.7-1-1.5s.2-1.5.4-1.5.6.7 1 1.5zM47 134c0 .5-.5 1-1.1 1-.5 0-.7-.5-.4-1 .3-.6.8-1 1.1-1 .2 0 .4.4.4 1zm-8.8 10.8c-.3 1-.1 1.3.6.8.7-.4 1.2-.5 1.2-.2 0 1.5-2 1.4-2.9-.2-.7-1.4-.6-1.9.4-1.9.7 0 1.1.7.7 1.5zm-1.2 3.7c0 .5-.5.3-1-.5s-1-2-1-2.5c0-.6.5-.3 1 .5s1 1.9 1 2.5zm-3.7-.8c-.7.2-1.9.2-2.5 0-.7-.3-.2-.5 1.2-.5s1.9.2 1.3.5zm7.3.2c-.4.5 0 1.2.6 1.4.8.3.6.6-.4.6-1.8.1-2.4-1-1.1-2.2.9-1 1.5-.8.9.2zM36 150c.8.5 1.1 1 .5 1-.5 0-1.7-.5-2.5-1s-1-1-.5-1c.6 0 1.7.5 2.5 1zm-3 19.4c0 .3-.4.8-1 1.1-.5.3-1 .1-1-.4 0-.6.5-1.1 1-1.1.6 0 1 .2 1 .4zm216 18.7c0 .6-.4.7-1 .4-.5-.3-1-1.1-1-1.6 0-.6.5-.7 1-.4.6.3 1 1.1 1 1.6zm-4-.1c0 .5-.5 1-1.1 1-.5 0-.7-.5-.4-1 .3-.6.8-1 1.1-1 .2 0 .4.4.4 1zm1.6 1.9c-.3.5.1 1.1.9 1.5.8.3 1.5 1 1.5 1.6 0 .5-.9.2-1.9-.7-1.7-1.4-2-3.3-.5-3.3.3 0 .3.4 0 .9zM251 200c0 .5-.5 1-1.1 1-.5 0-.7-.5-.4-1 .3-.6.8-1 1.1-1 .2 0 .4.4.4 1zm-60.5 6c.3.5.1 1-.4 1-.6 0-1.1-.5-1.1-1 0-.6.2-1 .4-1 .3 0 .8.4 1.1 1zm-1.9 6.6c.1 1.4 0 2.3-.3 2-.4-.3-.8-1.8-.9-3.2-.2-1.4 0-2.4.3-2 .3.3.7 1.7.9 3.2zM98 216.4c0 .2-.7.7-1.6 1-.8.3-1.2.2-.9-.4.6-1 2.5-1.4 2.5-.6zm-.8 3.3c-.6.3-.9 1-.5 1.6.4.7-.1.6-1-.2-2.1-1.7-2.1-1.7.6-1.8 1.2 0 1.6.1.9.4zm-2.8 2.1c.2.4 0 1.4-.6 2.2-.8 1.2-.9 1.1-.4-.4.5-1.3.2-1.7-.9-1.2-.8.3-1.5.1-1.5-.4 0-1.2 2.7-1.3 3.4-.2zm-7.7 3.6c-.8 2-5 1.4-5.3-.7-.1-.9.2-1.7.8-1.7.6 0 .8.6.5 1.4-.4 1 0 1.4 1.4 1.3 1.2-.1 1.9-.9 2-2.2 0-1.1.3-1.4.6-.7s.3 1.9 0 2.6zm144.7-.9c-1.9 2.9-2 2.9-3 1.2-.4-.6-.4-.9.1-.5.5.5 1.4-.1 2.2-1.2 2-2.9 2.6-2.5.7.5zm2.9.2c-.5 1.2-.3 1.4.7.8.9-.6 1.1-.4.5.4-.5.9-1.1.9-1.7.3-.6-.6-.7-1.5-.4-2.1 1.1-1.7 1.6-1.3.9.6zm-155.1.7c.7-.4.8-.2.4.5-.9 1.3-2.6.5-2.5-1.2 0-.9.2-.8.6.1.2.6 1 .9 1.5.6zm159.2-.2c-.5.8-.2.9.9.5 1-.3 1.7-.2 1.7.3 0 1.2-2.7 1.3-3.4.1-.3-.4-.3-1.1.1-1.5 1-1 1.5-.7.7.6zM94 226.7c0 .3-.9.3-2 0-1.5-.4-2 0-2.1 1.6 0 1.2-.3 1.6-.6.9-.9-2.3.5-4.1 2.6-3.5 1.2.3 2.1.8 2.1 1zm151.2 1.8c-.8 1.6-.9 1.6-1.5.1-.4-1-.3-1.5.3-1.1.6.3 1 .1 1-.6s.3-1 .6-.6c.3.3.2 1.3-.4 2.2zm-172.2.6c0 .5-.8.9-1.7.8-1.1 0-1.3-.3-.5-.6.6-.2.9-1 .6-1.5-.4-.7-.2-.8.4-.4.7.4 1.2 1.1 1.2 1.7zm3.4-.6c-.4.8-.8 1.5-1 1.5-.2 0-.4-.7-.4-1.5s.4-1.5 1-1.5c.5 0 .7.7.4 1.5zm6.6.2c0 .3-.7.3-1.5-.1-.8-.3-1.5 0-1.5.6s-.3.9-.6.5c-1.1-1 .6-2.6 2.1-2 .8.3 1.5.7 1.5 1zm4 .3c-.6 1.1-1.5 1.8-2 1.5-.4-.3-1.1 0-1.3.5-.4.7-.5.6-.3-.1.1-.6.5-.9.9-.7.5.2 1.3-.5 1.8-1.5 1.4-2.4 2.2-2.1.9.3zm144 .5c0 .2-.5.7-1.2 1.1-.7.4-.8.3-.4-.4.7-1.2-.4-1.6-3.4-1.3-1.3.2-1.3 0-.1-.8 1.3-.9 5.1.2 5.1 1.4zm8-1c0 .1-1.2.2-2.6.2-1.7 0-2.2-.2-1.3-.7 1-.7 3.9-.3 3.9.5zM92.6 230c0 1.2-.4 1.6-.9 1.1s-.6-1.4-.3-2c1-1.5 1.2-1.4 1.2.9zm149.1.5c-.9.7-1.3 1.6-.9 2 .4.5.1.5-.5.1-1.8-1-1.6-2.6.3-2.6.9 0 1.2-.5.8-1.2-.5-.7-.3-.8.6-.3 1 .6 1 1.1-.3 2zM69 229.4c0 .3-.4.8-1 1.1-.5.3-1 .1-1-.4 0-.6.5-1.1 1-1.1.6 0 1 .2 1 .4zm163.1 1.9c-1 .9-1.1.8-.5-.6.3-1 .9-1.5 1.2-1.2.3.3 0 1.1-.7 1.8zm-174.5-.2c.4.8.9.7 1.5-.2.6-1 .9-1 .9-.2 0 1.6-2.1 2.8-2.9 1.6-.3-.6-1.3-1.3-2.1-1.6-1.2-.4-1.2-.6.2-.6.9-.1 2 .4 2.4 1zm9.3 1.7c-.5.2-.6.9-.2 1.5.3.7.2.9-.2.4-.5-.4-1-1.7-1.2-2.8-.2-1.6-.1-1.8 1.1-.7.8.7 1 1.5.5 1.6zm90 .7c.2-1.2 4 3.6 4.1 5 0 .5-.9-.3-1.9-1.8-1-1.6-2.2-2.7-2.7-2.5-.5.2-1-.8-1.1-2.2l-.2-2.5.8 2.5c.5 1.4 1 2 1 1.5zM225 231c0 .5-.5 1-1.1 1-.5 0-.7-.5-.4-1 .3-.6.8-1 1.1-1 .2 0 .4.4.4 1zm3.3.3c.3.8.2 2-.3 2.6-.5.9-.7.4-.7-1.3 0-2.9.2-3.2 1-1.3zm8.4.9c-.3.8-.6.5-.6-.6-.1-1.1.2-1.7.5-1.3.3.3.4 1.2.1 1.9zm-166 .2c-.3.8-.2 1.7.4 2 .5.2.4.3-.2.2-1.5-.3-2.1-3.6-.7-3.6.6 0 .8.6.5 1.4zm4.3-1c0 .2-.7.7-1.6 1-.8.3-1.2.2-.9-.4.6-1 2.5-1.4 2.5-.6zm5.5.6c1.3.6 1.5.9.5.9-.8 0-2.2-.4-3-.9-1.8-1.2-.2-1.2 2.5 0zm80 0c.3.5.1 1-.4 1-.6 0-1.1-.5-1.1-1 0-.6.2-1 .4-1 .3 0 .8.4 1.1 1zm-97.7 1.2c-.2.6-1.5 1.3-2.9 1.5-1.8.2-2 .1-.9-.6.8-.5 1.8-.7 2.2-.5.4.3.8 0 .8-.5 0-.6.3-1.1.6-1.1s.4.5.2 1.2zm28 0c-.5 1.4-3.8 2-3.8.6 0-.6.7-.8 1.5-.4.8.3 1.5.1 1.5-.4 0-.6.3-1 .6-1s.4.5.2 1.2zm144 0c-.5 1.4-3.8 2-3.8.6 0-.6.7-.8 1.5-.4.8.3 1.5.1 1.5-.4 0-.6.3-1 .6-1s.4.5.2 1.2zm-158.3.6c-1.1.4-2 1.5-2 2.4 0 1-.4 1.8-.9 1.7-.5 0-1.3.6-1.8 1.5S70.5 241 70 241c-.6 0-.2-.9.7-1.9.9-1.1 2.1-1.7 2.6-1.4.5.3.8-.3.7-1.3-.4-3.1-.1-3.4 2.3-3.3 2 .1 2.1.1.2.7zm162 .2c-.3.5-.1 1 .6 1s1 .3.6.6c-.9.9-2.8-.6-2.2-1.7.4-.5.8-.9 1.1-.9.3 0 .2.4-.1 1zm-8.1 3.2c-.3.4-.1.8.5.8.5 0 1.2-.5 1.4-1 .3-.6.4-.5.3.2-.5 2.3-2.9 1.4-3.3-1.2-.2-1.8-.1-2.1.6-1 .5.8.7 1.8.5 2.2zM71 236.5c0 .1-1.2.2-2.6.2-1.7 0-2.2-.2-1.3-.7 1-.7 3.9-.3 3.9.5zm7.3.2c-.5 1.2-.3 1.4.7.8.9-.5 1.1-.4.6.4-.4.6-1.2.9-1.7.6-1.2-.8-1.2-3.5.1-3.5.5 0 .6.7.3 1.7zm8.2.3c-.3.5.3 1.1 1.2 1.4 1.5.4 1.5.5-.1.3-1.1-.1-2-1-2.2-2-.1-.9.2-1.5.7-1.1.5.3.7.9.4 1.4zm68.5-1.6c0 .2-.7.7-1.6 1-.8.3-1.2.2-.9-.4.6-1 2.5-1.4 2.5-.6zm71.2 1.1c.1.5.8 1.6 1.7 2.3 1.4 1.1 1.3 1.1-.7.2-1.3-.6-2-1.6-1.6-2.2.5-.7.1-.9-.9-.5-1 .3-1.7.2-1.7-.4 0-1.3 3.1-.7 3.2.6zm10.6 1c-.3.3-.9-.2-1.2-1.2-.6-1.4-.5-1.5.5-.6.7.7 1 1.5.7 1.8zm-174.3-.6c.3.5 0 1.3-.6 1.7-.7.4-.9.3-.5-.4.3-.5 0-1.3-.6-1.5-.9-.4-1-.6-.1-.6.6-.1 1.4.3 1.8.8zm20.8 1.2c-.8.8-1.3.7-1.8-.2-.5-.8-.4-1 .3-.5.7.4 1.2.2 1.2-.5s.3-.9.7-.6c.4.4.2 1.2-.4 1.8zm-19.2 1.6c-1.2 2-1.4 1.4-.5-1.2.4-.9.9-1.4 1.1-1.1.3.2 0 1.3-.6 2.3zm94.7-.6c.3 1.1.2 1.2-.6.1-.5-.8-1.2-1.3-1.6-1.2-.4.1-1.2-.1-1.9-.4-.6-.2-.1-.3 1.2-.2 1.4.2 2.7.9 2.9 1.7zm63.4-.1c-.2.8.3 1 1.3.7.8-.4 1.5-.2 1.5.3 0 .6-.7 1-1.6 1-.9 0-1.2.5-.8 1.2.4.6.3.8-.4.5-.5-.4-.9-1.5-.8-2.5.2-.9-.2-2.1-.8-2.5-.7-.6-.6-.7.4-.4.8.2 1.4 1 1.2 1.7zm-162.5 2.2c-.3.7-.5.2-.5-1.2s.2-1.9.5-1.3c.2.7.2 1.9 0 2.5zm8.1-1.8c-1.8 1.3-2.6 3.2-1 2.2.4-.2 1.4 0 2.2.5 1.2.7 1 .8-.7.6-3.3-.5-4-1.7-1.9-3.3 2.5-1.8 3.7-1.8 1.4 0zm7.5 1.6c-2 2.3-2 2.3-2.9.8-.4-.6-.3-.8.3-.5.6.4 1.3 0 1.7-.8.3-.8 1-1.5 1.6-1.5.5 0 .2.9-.7 2zm5.7-1c0 .5-.8 1-1.7 1-1.5 0-1.6-.2-.3-1 1.9-1.2 2-1.2 2 0zm74.8 1.5c-.3.3-.9-.2-1.2-1.2-.6-1.4-.5-1.5.5-.6.7.7 1 1.5.7 1.8zm62.4.7c-.8.8-.9.4-.5-1.3.4-1.3.8-1.8 1.1-1 .2.7-.1 1.8-.6 2.3zM234 240c-.8.5-1.9 1-2.5 1-.5 0-.3-.5.5-1s2-1 2.5-1c.6 0 .3.5-.5 1zm-73.7 1.5c-.3.9-.8 1.4-1 1.1-.3-.3-.2-.9.2-1.5.9-1.6 1.5-1.3.8.4zM64 243.4c0-.5.7-.1 1.4.9.8 1 1.8 1.8 2.3 1.8 1.3-.1.9 2.2-.5 2.5-.7.1-.8 0-.2-.3.5-.2 1-.9 1-1.4 0-.6-.5-.7-1-.4-.6.3-1.3-.1-1.6-.9-.3-.9-1-1.4-1.5-1.1-.4.3-1.3-.5-1.9-1.7-1.1-2.2-1-2.2.4-.4.9 1.1 1.6 1.6 1.6 1zm22.3-1.7c.3.5 0 1.7-.4 2.8-.9 1.9-.9 1.9-.5-.2.3-1.6-.2-2.3-1.8-2.6l-2.1-.4 2.2-.2c1.2 0 2.4.2 2.6.6zm78.1.5c-.3.5-1 .6-1.5.3-.5-.4-.9.4-1 1.7 0 1.3-.3 1.7-.6 1-.7-1.9.3-3.9 2.1-3.9.8 0 1.3.4 1 .9zm24.3-.6c-.3.3-1.2.4-1.9.1-.8-.3-.5-.6.6-.6 1.1-.1 1.7.2 1.3.5zm39.7.1c-1.5.3-2 1-1.7 2.2.3 1 .1 2.1-.4 2.4-.6.4-.9-3.3-.4-5.1.1-.1 1.1-.1 2.4-.1 2.1.2 2.1.2.1.6zm-156.3 4.5c-1 1.1-1.1 1-.5-.5.5-1.4.2-1.6-1.2-1.1-1.6.5-1.6.4-.4-.5 2-1.4 3.9.4 2.1 2.1zm4.9-1.7c0 .8-.2 1.5-.4 1.5s-.6-.7-1-1.5c-.3-.8-.1-1.5.4-1.5.6 0 1 .7 1 1.5zm6-.2c0 .8-.3 1.6-.6 2-.8.8-3.4-.3-3.4-1.5 0-.6.8-.4 1.7.3 1.5 1.2 1.6 1.2 1-.4-.3-.9-.2-1.7.3-1.7.6 0 1 .6 1 1.3zm75-.9c0 .2-.7.7-1.6 1-.8.3-1.2.2-.9-.4.6-1 2.5-1.4 2.5-.6zm29.4 1.2c.3.8.2 1.2-.4.9-.6-.3-1-1-1-1.6 0-1.4.7-1.1 1.4.7zm3.8.8c.7-.4.8-.2.4.5-1 1.5-2.6.4-2.5-1.7.1-1.5.2-1.5.6.1.2.9.9 1.4 1.5 1.1zm29.8-.9c0 .8-.2 1.5-.4 1.5s-.6-.7-1-1.5c-.3-.8-.1-1.5.4-1.5.6 0 1 .7 1 1.5zm9.4 0c-.5 1.1-.1 1.4 1.2.9 1.5-.5 1.6-.4.4.4-.8.6-1.8.8-2.2.6-1.1-.7-1-3.4.2-3.4.5 0 .7.7.4 1.5zm-13.4.5c0 .5-.5 1-1.1 1-.5 0-.7-.5-.4-1 .3-.6.8-1 1.1-1 .2 0 .4.4.4 1zm8-.6c0 .3-.4.8-1 1.1-.5.3-1 .1-1-.4 0-.6.5-1.1 1-1.1.6 0 1 .2 1 .4zm-96 1.6c0 .5-.5 1-1.1 1-.5 0-.7-.5-.4-1 .3-.6.8-1 1.1-1 .2 0 .4.4.4 1zm30 2c0 1-.4 2.1-.9 2.4-.4.3-.6-.6-.3-2.1.4-1.9.2-2.4-.8-1.8-.9.5-1.1.4-.6-.4 1-1.6 2.6-.4 2.6 1.9zm7-2.6c0 .2-.7.6-1.5 1-.8.3-1.5.1-1.5-.4 0-.6.7-1 1.5-1s1.5.2 1.5.4zm-35.3 2.8c-.2 1.2-1 2.4-1.8 2.6-1.1.3-1.2.2-.1-.6.8-.5 1.3-1.2 1.3-1.6-.2-1.5-.1-2.6.4-2.6.3 0 .3 1 .2 2.2zM79 248c0 .5-.4 1-1 1-.5 0-1-.5-1-1 0-.6.5-1 1-1 .6 0 1 .4 1 1zm6.5 0c.3.5.2 1-.4 1-.5 0-1.3-.5-1.6-1-.3-.6-.2-1 .4-1 .5 0 1.3.4 1.6 1zm48.7 2.2c-.6.6-1.2.6-1.7-.3-.5-.8-.4-1 .3-.5.7.4 1.2 0 1.3-1.1 0-1.2.2-1.3.6-.5.3.8.1 1.8-.5 2.4zm27.5-1c-.3.8-.6.5-.6-.6-.1-1.1.2-1.7.5-1.3.3.3.4 1.2.1 1.9zm4.7 1c-.7 1.1-3.4 1-3.4-.2 0-.5.7-.7 1.5-.4 1.1.5 1.4.1.9-1.2-.5-1.5-.4-1.6.4-.4.6.8.8 1.8.6 2.2zm22.1-2.2c-.3.5-1.1 1-1.6 1-.6 0-.7-.5-.4-1 .3-.6 1.1-1 1.6-1 .6 0 .7.4.4 1zm4.1-.1c-.4.5-.1 1.1.6 1.3.6.2 1.3 1.5 1.5 2.9.2 1.8.1 2-.6.9-.5-.8-.7-1.8-.5-2.2.3-.4-.2-.8-1-.8-1.7 0-2.1-1.2-.9-2.3.9-1 1.5-.8.9.2zm22 .6c-.3.9 0 1.5.9 1.5.8 0 1.5.5 1.5 1 0 1.7-3.3-.5-3.6-2.4-.1-.9.2-1.6.8-1.6.6 0 .8.7.4 1.5zm4.4-.5c0 .5-.4 1-1 1-.5 0-1-.5-1-1 0-.6.5-1 1-1 .6 0 1 .4 1 1zm4 0c0 .5-.4 1-1 1-.5 0-1-.5-1-1 0-.6.5-1 1-1 .6 0 1 .4 1 1zm6.4-.1c.3.5 0 1.1-.7 1.4-.8.3-1.4-.1-1.4-.9 0-1.6 1.3-1.9 2.1-.5zM74 249.6c0 .2-.7.4-1.5.4s-1.5-.4-1.5-1c0-.5.7-.7 1.5-.4.8.4 1.5.8 1.5 1zm6.1 1.1c-1.2 2-1.4 1.4-.5-1.2.4-.9.9-1.4 1.1-1.1.3.2 0 1.3-.6 2.3zm58.3-1.1c.3.8.2 1.2-.4.9-.6-.3-1-1-1-1.6 0-1.4.7-1.1 1.4.7zm59.6-.2c-.7.7-1.3.7-2 0-.6-.6-.3-1 1-1s1.6.4 1 1zm26.1 1.3c-1.2 2-1.4 1.4-.5-1.2.4-.9.9-1.4 1.1-1.1.3.2 0 1.3-.6 2.3zm-97.5-.5c.4.7.3.8-.4.4s-1.2-.2-1.2.5-.3 1-.6.6c-.6-.5.3-2.7 1.1-2.7.2 0 .7.5 1.1 1.2zm94.1 1.3c0 .8-.4 1.5-.9 1.5-.4 0-.8-.7-.8-1.5s.4-1.5.8-1.5c.5 0 .9.7.9 1.5zm-86.7 1c0 .1-1.2.2-2.6.2-1.7 0-2.2-.2-1.3-.7 1-.7 3.9-.3 3.9.5zm9-.3c0 .5-.6.8-1.2.7-2.7-.3-3.9.1-3.2 1.3.5.7.3.8-.6.3-1-.6-1-1 .3-2 1.9-1.4 4.7-1.6 4.7-.3zm18.8.4c.5.9 1.3 1.5 1.8 1.5.5-.1 1 1.1 1.1 2.6.2 1.9 0 2.4-.6 1.4-.5-.8-.7-2.1-.3-2.9.3-1 .1-1.3-.6-.8-.7.4-1.5 0-1.8-.9-.4-.9-1.3-1.4-2.1-1.1-.8.3-1.1.1-.8-.4.9-1.5 2.3-1.2 3.3.6zm23.2 1.5c0 .5-.5.9-1.2.9-.6 0-.8-.3-.5-.7.4-.3.1-1.3-.6-2.2-1.1-1.4-1-1.4.6-.2.9.7 1.7 1.7 1.7 2.2zm4-2.1c0 .5-.7.7-1.5.4-.8-.4-1.5-.8-1.5-1 0-.2.7-.4 1.5-.4s1.5.4 1.5 1zm9.3.5c-.3 1-.1 1.5.8 1.3.7-.2 1.5.5 1.7 1.4.2 1-.1 1.8-.7 1.8s-.8-.7-.4-1.5c.3-1 .1-1.5-.8-1.3-.7.2-1.5-.5-1.7-1.5-.2-.9.1-1.7.7-1.7s.8.7.4 1.5zm7.7-.5c0 .5-.8 1-1.7 1-1.5 0-1.6-.2-.3-1 1.9-1.2 2-1.2 2 0zm21 0c0 .5-.4 1-1 1-.5 0-1-.5-1-1 0-.6.5-1 1-1 .6 0 1 .4 1 1zm-99.8.7c-.6.2-.9 1-.6 1.5.4.7.2.8-.5.4-1.3-.9-.5-2.6 1.2-2.5.9 0 .8.2-.1.6zm-6.8 3.6c-.9.5-1.8.6-2.1.3-.4-.3-.1-.6.6-.6s.9-.5.6-1c-.4-.6-1.1-.7-1.7-.4-.7.4-.8.2-.4-.4.5-.9 1.2-.8 2.6 0 1.7 1.1 1.7 1.4.4 2.1zm3.8.5c-.3 1-.1 1.3.6.8.7-.4 1.5-.1 1.8.8.3.9 1 1.4 1.4 1.1.5-.3 1.3.2 1.8 1.1.5.9 1.3 1.4 1.8 1.2.5-.1 1 .8 1.1 2.2l.2 2.5-.8-2.5c-.5-1.4-1-2.1-1-1.5-.1.5-.8.1-1.6-.9-.8-1.1-1.5-1.6-1.5-1 0 .5-.7 0-1.6-1.1-.8-1.1-1.8-1.8-2.2-1.5-.3.3-.8-.8-.9-2.5-.1-2 .1-2.5.6-1.6.5.8.7 2.1.3 2.9zm12.2-2.2c.3.8.2 1.2-.4.9-.6-.3-1-1-1-1.6 0-1.4.7-1.1 1.4.7zm56.6-.6c0 .5-.8.6-1.7.3-1.6-.6-1.6-.5-.4 1 .7.9.9 1.7.3 1.7-1.2 0-2.3-2.6-1.5-3.4 1-1 3.3-.7 3.3.4zm-77.7 2.6c-.7 1.9-1 1.8-1.6-.5-.3-1.3-.1-1.8.9-1.4.7.2 1 1.1.7 1.9zm16.9 1.2c1.3.2 1.6-.2 1.2-1.5-.5-1.5-.4-1.5.4-.3.6.8.9 1.8.6 2.2-.7 1.1-4.7.3-5.2-1-.2-.7-.8-1-1.3-.7-.5.4-.6-.1-.2-1.1.5-1.5.7-1.5 1.7.2.6 1.1 1.9 2 2.8 2.2zm-40.9-1.3c-.3.9-.8 1.4-1 1.1-.3-.3-.2-.9.2-1.5.9-1.6 1.5-1.3.8.4zm54.9.5c-.2.8.3 1 1.3.7.8-.4 1.5-.2 1.5.4 0 .6-.8.9-1.7.7-1-.2-1.7-1-1.5-1.7.2-.9-.3-1.1-1.3-.7-.9.3-1.9.6-2.1.6-.3 0-.2.5.2 1.2.5.7.3.8-.6.3-1-.6-.9-1.1.6-2.2 2.1-1.5 4-1.2 3.6.7zm22.8-1c-.8.5-1.9 1-2.5 1-.5 0-.3-.5.5-1s2-1 2.5-1c.6 0 .3.5-.5 1zm13.2 1c-.2.8.3 1 1.3.7.8-.4 1.5-.2 1.5.4 0 .6-.8.9-1.7.7-1-.2-1.7-1-1.5-1.7.2-.9-.3-1.1-1.3-.7-1 .3-1.4.2-1-.5.9-1.4 3.1-.5 2.7 1.1zm5.8-1.6c0 .3-.4.8-1 1.1-.5.3-1 .1-1-.4 0-.6.5-1.1 1-1.1.6 0 1 .2 1 .4zm-86.9 2c.5-.3 1.2.2 1.5 1 .3.9.9 1.4 1.3 1.2.4-.3.8.5.8 1.7.2 1.9 0 1.8-1.6-.7-1-1.5-2.2-2.7-2.7-2.6-.5.1-.9-.3-1-1-.2-.6-.1-.7.3 0 .2.5.9.8 1.4.4zm5.3.2c.3.8.2 1.2-.4.9-.6-.3-1-1-1-1.6 0-1.4.7-1.1 1.4.7zm4-.4c-.5.8-.2.9.9.5 1-.3 1.7-.2 1.7.3 0 1.2-2.7 1.3-3.4.1-.3-.4-.3-1.1.1-1.5 1-1 1.5-.7.7.6zm27.9.9c-.8.8-1.3.7-1.8-.2-.5-.8-.4-1 .3-.5.7.4 1.2.2 1.2-.5s.3-.9.7-.6c.4.4.2 1.2-.4 1.8zm33 0c-.8.8-1.3.7-1.8-.2-.5-.8-.4-1 .3-.5.7.4 1.2.2 1.2-.5s.3-.9.7-.6c.4.4.2 1.2-.4 1.8zm-19-.4c-.7.2-1.3.9-1.3 1.4 0 .6.5.7 1.2.3.7-.5.8-.3.3.5-.5.9-1.1.9-1.7.3-1.2-1.2-.2-3.2 1.5-3.1.9 0 .9.2 0 .6zm34.4 2.5c-.2 1.2-1 2.4-1.8 2.6-1.1.3-1.2.2-.1-.6.8-.5 1.3-1.2 1.3-1.6-.2-1.5-.1-2.6.4-2.6.3 0 .3 1 .2 2.2zm-96.1.5c-.2.9-.9 1.9-1.7 2.1-1.1.3-1.1.1.1-.7.8-.6 1.1-1.1.7-1.1-.5 0-.5-.5-.2-1 .9-1.5 1.4-1.2 1.1.7zm7.3-.7c-.6.5-1.8.6-2.6.3-1.9-.8-1.6-1.1 1.3-1.1 1.7 0 2.2.3 1.3.8zm13.1.5c0 .1-1.2.2-2.6.2-1.7 0-2.2-.2-1.3-.7 1-.7 3.9-.3 3.9.5zm3.6.2c-.2.9-.8 1.9-1.4 2.1-.7.2-.9.9-.6 1.4.4.7.2.8-.4.4-1.7-1-1.5-2.6.3-2.6.8 0 1.4-.3 1.4-.8-.2-1.1.1-2.2.5-2.2.2 0 .3.8.2 1.7zm7.3-.7c-.6.5-1.8.6-2.6.3-1.9-.8-1.6-1.1 1.3-1.1 1.7 0 2.2.3 1.3.8zm15 1.3c0 .9-.2.9-.5 0-.3-.7-1.3-.9-2.2-.6-1.4.4-1.4.3-.2-.5 1.6-1.2 3-.7 2.9 1.1zm4.1-.8c0 .8-.2 1.5-.4 1.5s-.6-.7-1-1.5c-.3-.8-.1-1.5.4-1.5.6 0 1 .7 1 1.5zm3.2.7c-.7.7-1.2.8-1.2.2 0-1.4 1.2-2.6 1.9-1.9.2.3-.1 1.1-.7 1.7zm13.3-1.2c-.3.5-1.3 1-2.1 1s-1.2.4-.9 1c.3.5.4 1 .1 1-1.7 0-1.3-2.2.6-2.9 3-1.3 3-1.3 2.3-.1zm11.5-.6c0 .2-.9.6-2 .9-1.1.3-1.8.1-1.4-.4.5-.9 3.4-1.3 3.4-.5zm13.5 1.4c-.3.3-1.1 0-1.8-.7-.9-1-.8-1.1.6-.5 1 .3 1.5.9 1.2 1.2zm11.4-.8c-.6.5-1.8.6-2.6.3-1.9-.8-1.6-1.1 1.3-1.1 1.7 0 2.2.3 1.3.8zm-99.7 1.4c.7-.4.8-.2.4.5-.9 1.3-2.6.5-2.5-1.2 0-.9.2-.8.6.1.2.6 1 .9 1.5.6zm24 0c.7-.4.8-.2.4.5-.9 1.3-2.6.5-2.5-1.2 0-.9.2-.8.6.1.2.6 1 .9 1.5.6zm-31.8.4c.2.4 0 1.4-.6 2.2-.8 1.2-.9 1.2-.5-.2.3-.9.1-1.9-.6-2.2-.9-.3-.9-.5 0-.5.6-.1 1.4.3 1.7.7zm16.7 1.4c.6 1.2.6 1.8-.1 1.8-.5 0-1-.6-1-1.3 0-.7-.9-1.3-2-1.4-1.1-.1-1.8.3-1.4.8.3.6.3 1.7 0 2.6-.5 1.2-.9 1.3-2.1.3-.8-.7-1.5-1.7-1.5-2.3 0-.6.7-.2 1.5.9 1.5 1.9 1.6 1.9 1.4-.1-.2-3.1 0-3.4 2.2-3.2 1.1.1 2.5.9 3 1.9zm23.4-.2c0 .7-.6 1.4-1.3 1.6-.7.1-.8 0-.2-.3 1.6-.8 1.2-1.9-.9-2-1.4-.1-1.9.4-1.6 1.7.5 2.4-1.3 3.6-2.8 2.1-.9-.9-.8-1.1.5-.6 1.2.5 1.6.2 1.4-1.2-.2-1-.2-2.1.1-2.5.7-1.3 4.8-.2 4.8 1.2zm22.5-1c0 .5-.6.7-1.3.4-.9-.3-1.3.3-1.3 1.7.1 1.3-.6 2.3-1.7 2.5-.9.1-1.5-.2-1.1-.7.3-.5 1-.7 1.6-.3.5.3.9-.2.8-1.2-.1-1.1-.2-2.2-.1-2.7.2-1.1 3.1-.9 3.1.3zm48-.6c0 .2-.9.6-2 .9-1.1.3-1.8.1-1.4-.4.5-.9 3.4-1.3 3.4-.5zm-88.3 2.1c0 1.7-1.3 2-2.1.6-.4-.5 0-1.2.6-1.4.7-.3 1.3-.6 1.4-.6 0-.1.1.6.1 1.4zm43.6-.1c.7-.3.4.1-.5.9-1 .8-1.4 1.8-1 2.2.4.5.2.5-.5.2-.6-.4-.9-1.7-.5-2.9.3-1.2.7-1.7 1-1 .2.7.9 1 1.5.6zm-57.9 3.8c-.3.4.2.8 1 .8 1.9 0 2.1 1.6.4 2.6-.6.4-.8.3-.5-.3.4-.6 0-1.4-.9-1.7-.8-.3-1.3-1-1-1.5.3-.5-.1-1.1-.9-1.5-.8-.3-1.5-1-1.5-1.6 0-.5.9-.2 1.9.7 1.1.9 1.8 2 1.5 2.5zm34.3-2.2c-.1 1.1-.5 2-.9 2-1 0-1-.4-.2-2.4.8-2.2 1.3-2 1.1.4zm10.8-1c.3.6-.1.7-.9.4-1.8-.7-2.1-1.4-.7-1.4.6 0 1.3.4 1.6 1zm3.5 0c0 .5-.4 1-1 1-.5 0-1-.5-1-1 0-.6.5-1 1-1 .6 0 1 .4 1 1zm-53 1.6c0 .2-.7.4-1.5.4s-1.5-.4-1.5-1c0-.5.7-.7 1.5-.4.8.4 1.5.8 1.5 1zm49 .8c0 .2-.9.2-2-.1-1.1-.3-2-.9-2-1.5 0-.5.9-.4 2 .2 1.1.6 2 1.2 2 1.4zm-32 1.2c0 .8-.4 1.4-1 1.4-.5 0-.6-.7-.3-1.7.5-1.2.3-1.4-.7-.8-.9.5-1.1.4-.6-.4.9-1.4 2.6-.5 2.6 1.5zm3.5.1c-.1 2.2-.7 2.8-2.6 3-2.3.1-2.3.1-.1-.4 1.2-.2 2-.9 1.6-1.4-.5-.9.1-3.9.9-3.9.1 0 .2 1.2.2 2.7zm5.9-2c-1.5.3-2 1-1.7 2.2.3 1 .1 2.1-.4 2.4-.6.4-.9-3.3-.4-5.1.1-.1 1.1-.1 2.4-.1 2.1.2 2.1.2.1.6zm24.4 2.9c0 1.7-.3 2.2-.8 1.3-.5-.6-.6-1.8-.3-2.6.8-1.9 1.1-1.6 1.1 1.3zm-39.8-.1c0 .8-.2 1.5-.4 1.5s-.6-.7-1-1.5c-.3-.8-.1-1.5.4-1.5.6 0 1 .7 1 1.5zm17.3 0c-.3 1-.1 1.5.8 1.3.7-.2 1.4.6 1.6 1.7.3 1.8.2 1.8-.5.2-.4-1-1.2-1.8-1.7-1.7-.6 0-1.1-.6-1.3-1.4-.2-.9.1-1.6.7-1.6s.8.7.4 1.5zm7.7.1c0 .2-.7.4-1.5.4s-1.5-.4-1.5-1c0-.5.7-.7 1.5-.4.8.4 1.5.8 1.5 1zm23-.1c0 .8-.2 1.5-.4 1.5s-.6-.7-1-1.5c-.3-.8-.1-1.5.4-1.5.6 0 1 .7 1 1.5zm-44.6 1.1c.3.8.2 1.2-.4.9-.6-.3-1-1-1-1.6 0-1.4.7-1.1 1.4.7zm23.9-.1c-.3.9-.8 1.4-1 1.1-.3-.3-.2-.9.2-1.5.9-1.6 1.5-1.3.8.4zm16.7-.5c0 .5-.7.7-1.5.4-.8-.4-1.5-.8-1.5-1 0-.2.7-.4 1.5-.4s1.5.4 1.5 1zm7.4.6c.3.8.2 1.2-.4.9-.6-.3-1-1-1-1.6 0-1.4.7-1.1 1.4.7zm-20 .6c-.3.5-1 .6-1.5.3-.5-.4-.9-.2-.9.4 0 .5.6 1.2 1.3 1.4.9.4.9.6 0 .6-1.4.1-2.6-1.6-1.9-2.7.3-.5 1.2-.9 2-.9s1.3.4 1 .9zm7 1.1c1 .9 1.2 1.7.6 1.7s-1.3-.7-1.6-1.5c-.4-.8-.9-1.3-1.3-1.1-.4.3-1.3 0-2.1-.5-1.2-.7-1-.8.6-.6 1.2.1 2.9 1.1 3.8 2zm-35.4.7c.8.5 1.1 1 .5 1-.5 0-1.7-.5-2.5-1s-1-1-.5-1c.6 0 1.7.5 2.5 1zm8.5 1.2c-.9.6-1.9.7-2.2.4-.4-.3-.1-.6.6-.6s.9-.4.6-1c-.4-.6.1-.7 1.1-.3 1.5.6 1.5.7-.1 1.5zm4.5-1.5c0 .5-.5 1.5-1 2.3-.7 1.2-.9 1-.7-.8.1-1.9 1.7-3.3 1.7-1.5zm9 .3c0 .5-.4 1-1 1-.5 0-1-.5-1-1 0-.6.5-1 1-1 .6 0 1 .4 1 1zm9.8.6c.5.9 1.3 1.5 1.8 1.4.5 0 1 .6 1.2 1.4.2.9-.1 1.6-.7 1.6s-.8-.7-.5-1.5c.4-1 0-1.3-1.5-1-1.1.2-2.4-.1-2.7-.7-.4-.7-.2-.8.4-.4.7.4 1.2.3 1.2-.3 0-.5-.6-1.2-1.2-1.4-1-.4-1-.6-.1-.6.7-.1 1.6.6 2.1 1.5zm11.7-.6c.3.6-.1.7-.9.4-1.8-.7-2.1-1.4-.7-1.4.6 0 1.3.4 1.6 1zm4.5 0c1.2.7 1 .9-.8.7-1.2 0-2.2-.5-2.2-.9 0-1.1 1.2-1 3 .2zm-29.7 2.3c-.3.5-1.3.7-2.3.4-1.4-.3-1.8.1-1.7 1.4.1 1.3.7 1.7 1.8 1.4 1-.3 2-.2 2.2.3.3.4-.6.8-2 .7-1.8 0-2.7-.6-2.9-1.9-.4-2.7 0-3.1 2.9-3.1 1.4 0 2.3.4 2 .8zm6.7-.3c0 .5-.4 1-1 1-.5 0-1-.5-1-1 0-.6.5-1 1-1 .6 0 1 .4 1 1zm13.5 1.7c-.1 2.2-.7 2.8-2.6 3-2.3.1-2.3.1-.1-.4 1.2-.2 2-.9 1.6-1.4-.5-.9.1-3.9.9-3.9.1 0 .2 1.2.2 2.7zm4.1-.4c.1.9-.2 1.5-.7 1.1-.5-.3-.7-.9-.4-1.4.3-.4 0-1.1-.5-1.3-.6-.3-.5-.4.1-.3.7.1 1.3 1 1.5 1.9zm2.8.3c.3.8.2 1.2-.4.9-.6-.3-1-1-1-1.6 0-1.4.7-1.1 1.4.7zm-38.4-.2c0 .3-.4.8-1 1.1-.5.3-1 .1-1-.4 0-.6.5-1.1 1-1.1.6 0 1 .2 1 .4zm15 .8c0 .4-.7.8-1.5.8s-1.5-.4-1.5-.8c0-.5.7-.9 1.5-.9s1.5.4 1.5.9zm7-.2c0 .5-.7.7-1.5.4-.8-.4-1.5-.8-1.5-1 0-.2.7-.4 1.5-.4s1.5.4 1.5 1zm-4 2c0 .5-.4 1-1 1-.5 0-1-.5-1-1 0-.6.5-1 1-1 .6 0 1 .4 1 1zm7.5 0c.4.6-.1.7-1.1.3-1.1-.4-1.5-.3-1 .5.3.6.2 1.3-.3 1.6-.7.5-.8-1.1-.2-3.2.2-.6 2.1-.1 2.6.8z"/><path d="M236.5 241c-.3.5-.1 1 .4 1 .6 0 1.1-.5 1.1-1 0-.6-.2-1-.4-1-.3 0-.8.4-1.1 1z"/></svg>