<?xml version="1.0" encoding="utf-8"?>
<!-- Generator: Adobe Illustrator 22.0.1, SVG Export Plug-In . SVG Version: 6.00 Build 0)  -->
<svg version="1.1" id="Capa_1" xmlns="http://www.w3.org/2000/svg" xmlns:xlink="http://www.w3.org/1999/xlink" x="0px" y="0px"
	 viewBox="0 0 95.9 115.1" style="enable-background:new 0 0 95.9 115.1;" xml:space="preserve">
<style type="text/css">
	.st0{opacity:0.5;clip-path:url(#SVGID_2_);}
</style>
<g>
	<defs>
		<path id="SVGID_1_" d="M33.7,32.3c3.3-5.8,9-8.7,17.2-8.7c5.6,0,10,1.8,13.4,5.4c3.5,3.7,5.2,8,5.2,13.3c0,1.2,1,2.2,2.2,2.2h21.8
			c1,0,1.8-0.6,2.1-1.5l0.2-0.6c0.1-0.2,0.1-0.4,0.1-0.7c0.3-12.1-3.9-22.2-12.3-30.1C75.2,4,64.2,0,50.9,0C34.6,0,21.8,5.4,13.1,16
			C4.4,26.5,0,39.9,0,55.8v3.5c0,16,4.4,29.4,13.1,39.8c8.8,10.6,21.5,16,37.8,16c12.4,0,23.1-3.8,31.9-11.4
			c8.9-7.7,13.3-16.9,12.9-27.6c0-0.2,0-0.4-0.1-0.6l-0.2-0.6c-0.3-0.9-1.2-1.5-2.1-1.5H71.7c-1.2,0-2.2,1-2.2,2.2
			c0,4.5-1.7,8.2-5.2,11.2c-3.6,3.1-8,4.6-13.3,4.6c-8.2,0-13.8-2.8-17.2-8.6c-3.5-6.1-5.3-14-5.3-23.6v-3.4
			C28.4,46.4,30.2,38.5,33.7,32.3z"/>
	</defs>
	<clipPath id="SVGID_2_">
		<use xlink:href="#SVGID_1_"  style="overflow:visible;"/>
	</clipPath>
	<path class="st0" d="M42.1,13.8c0,0-5.2-12.6-20.3,2.6C6.7,31.4,12,39.7,36.2,39.8C60.5,39.9,49.3,30.2,42.1,13.8z"/>
	<path class="st0" d="M35.1,44.3c0,0-5.2-12.5-20.3,2.6C-0.3,62,5,70.2,29.2,70.3C53.5,70.5,42.4,60.7,35.1,44.3z"/>
	<path class="st0" d="M50.4,29c0,0,13.5-1,3.9-20.1c-9.6-19.1-19.1-16.6-26.8,6.4C19.8,38.3,32.5,30.8,50.4,29z"/>
	<path class="st0" d="M82.8,8.8c0,0,13.5-1,3.9-20.1c-9.6-19.1-19.1-16.6-26.8,6.4C52.2,18.1,64.9,10.5,82.8,8.8z"/>
	<path class="st0" d="M47.7,114.4c0,0,13.5-1,3.9-20.1c-9.6-19.1-19.1-16.6-26.8,6.4C17.1,123.7,29.9,116.2,47.7,114.4z"/>
	<path class="st0" d="M42.5,41.2c0,0,7.9,11.1,19.2-7.1c11.3-18.1,4.3-24.9-19.4-19.6C18.6,19.9,31.6,26.8,42.5,41.2z"/>
	<path class="st0" d="M40,79.4c0,0-11.8,6.7,5,19.8c16.8,13.2,24.3,6.9,21.5-17.2C63.7,58,55.4,70.2,40,79.4z"/>
	<path class="st0" d="M46,79c0,0,7.9,11,19.2-7.1C76.5,53.8,69.5,47,45.8,52.4C22.2,57.7,35.2,64.7,46,79z"/>
	<path class="st0" d="M94.3,91c0,0,13,3.8,10.7-17.4c-2.3-21.2-12.1-22.2-27.3-3.4C62.4,89.1,76.9,86.5,94.3,91z"/>
	<path class="st0" d="M93.5,21.5c0,0,13,3.8,10.7-17.4c-2.3-21.2-12.1-22.2-27.3-3.4C61.6,19.5,76.2,16.9,93.5,21.5z"/>
	<path class="st0" d="M65.1,66c0,0,13,3.8,10.7-17.4c-2.3-21.2-12.1-22.2-27.3-3.4C33.1,64,47.7,61.4,65.1,66z"/>
	<path class="st0" d="M67.4,87.5c0,0-7.7,11.2,13.2,15.6c20.9,4.5,24.9-4.5,11.8-24.9C79.3,57.8,77.2,72.4,67.4,87.5z"/>
	<path class="st0" d="M46.6,64.5c0,0-7.7,11.2,13.2,15.6c20.9,4.4,24.9-4.5,11.8-24.9C58.5,34.8,56.4,49.5,46.6,64.5z"/>
	<path class="st0" d="M2.5,32c0,0-7.7,11.2,13.2,15.6c20.9,4.5,24.9-4.5,11.8-24.9C14.4,2.3,12.3,17,2.5,32z"/>
	<path class="st0" d="M62.9,73.7c0,0-13.6-0.8-6.5,19.4c7.1,20.2,16.8,18.9,27.4-2.9C94.5,68.4,80.9,74.2,62.9,73.7z"/>
	<path class="st0" d="M21.5,67.9c0,0,2.2-13.4-18.6-8.5C-17.9,64.3-17.7,74.1,2.8,87C23.4,99.9,19,85.7,21.5,67.9z"/>
	<path class="st0" d="M106.1,52.9c0,0,13.4-2,2.5-20.3c-11-18.3-20.2-15.2-26.3,8.3C76.2,64.4,88.4,56,106.1,52.9z"/>
	<path class="st0" d="M69.1,42.3c0,0,13.4-2,2.5-20.3c-11-18.3-20.2-15.2-26.3,8.3C39.2,53.8,51.4,45.4,69.1,42.3z"/>
	<path class="st0" d="M80.2,60.9c0,0-2.4,13.4,18.5,8.7c20.9-4.7,20.8-14.4,0.4-27.6C78.6,28.9,82.8,43.1,80.2,60.9z"/>
	<path class="st0" d="M51.7,48.7c0,0-2.4,13.4,18.5,8.7C91,52.7,91,42.9,70.6,29.8C50.1,16.7,54.3,30.9,51.7,48.7z"/>
	<path class="st0" d="M-2,37.5c0,0-2.4,13.4,18.5,8.7c20.9-4.7,20.8-14.4,0.4-27.5C-3.5,5.5,0.7,19.7-2,37.5z"/>
	<path class="st0" d="M33.8,38.5c0,0-3.6-13.1-20.4,0C-3.5,51.6,0.7,60.5,24.8,63.6C48.8,66.7,39,55.7,33.8,38.5z"/>
	<path class="st0" d="M32.7,44.5c0,0-12.6,5,2.2,20.3c14.8,15.4,23.2,10.2,23.7-14C59.2,26.5,49.2,37.5,32.7,44.5z"/>
	<path class="st0" d="M9.3,88.4c0,0-6.9,11.7,14.3,14.6c21.2,2.9,24.5-6.3,9.9-25.7C19,57.9,18,72.6,9.3,88.4z"/>
	<path class="st0" d="M40.8,66.1c0,0-6.9,11.7,14.3,14.6C76.2,83.6,79.6,74.4,65,55C50.4,35.6,49.4,50.4,40.8,66.1z"/>
	<path class="st0" d="M19.3,63.2c0,0-9-10.2-18.4,9c-9.4,19.2-1.7,25.3,21.3,17.5C45.2,82,31.5,76.3,19.3,63.2z"/>
	<path class="st0" d="M46.7,48.6c0,0-9-10.2-18.4,9c-9.4,19.2-1.7,25.2,21.3,17.5C72.6,67.4,58.9,61.7,46.7,48.6z"/>
	<path class="st0" d="M88.9,13.7c0,0-9-10.2-18.4,9c-9.4,19.2-1.7,25.2,21.3,17.5C114.8,32.4,101.1,26.8,88.9,13.7z"/>
	<path class="st0" d="M33.8,62.1c0,0,4-13-17.2-11c-21.3,2-22.5,11.7-3.9,27.3C31.2,94,28.9,79.4,33.8,62.1z"/>
	<path class="st0" d="M65.8,41c0,0,12.4,5.4,12.8-16c0.3-21.4-9.2-23.6-26.7-6.8C34.3,35,49.1,34.3,65.8,41z"/>
</g>
</svg>
